<?xml version="1.0" encoding="UTF-8" standalone="no"?>
<svg width="512" height="512" viewBox="0 0 512 512" fill="none" xmlns="http://www.w3.org/2000/svg">
  <!-- Background: Primary with 5% opacity (Elite/High Roller card background) -->
  <rect width="512" height="512" fill="hsl(210, 25%, 25%, 0.05)"/>
  
  <!-- Stylized "C" for Convive in primary slate blue color -->
  <path d="M346 176C328.5 158.5 305.7 150 278 150C250.3 150 227.3 158.5 209 176C190.7 193.5 182 215.8 182 243C182 270.2 190.7 292.8 209 310.5C227.3 328.2 250.3 337 278 337C305.7 337 328.5 328.2 346 310.5C363.5 292.8 372.8 270.2 372.8 243H332.8C332.8 258.7 327.5 271.5 317 281.5C306.5 291.5 293.7 296.5 278 296.5C262.3 296.5 249.2 291.5 238.5 281.5C227.8 271.5 222.5 258.7 222.5 243C222.5 227.3 227.8 214.5 238.5 204.5C249.2 194.5 262.3 189.5 278 189.5C293.7 189.5 306.5 194.5 317 204.5C327.5 214.5 332.8 227.3 332.8 243H372.8C372.8 215.8 363.5 193.5 346 176Z" fill="hsl(210, 25%, 25%)"/>
</svg>